<svg width="489.394" height="489.394" xmlns="http://www.w3.org/2000/svg">

 <g>
  <title>background</title>
  <rect fill="none" id="canvas_background" height="602" width="802" y="-1" x="-1"/>
 </g>
 <g>
  <title>Layer 1</title>
  <path transform="rotate(-180, 244.197, 244.696)" id="svg_1" d="m114.11833,92.867l207.30908,0l-17.37159,-42.795c-3.6952,-9.132 -0.99227,-19.574 6.63925,-25.744c7.64144,-6.166 18.39462,-6.508 26.43296,-0.879l140.37283,98.261c6.14907,4.304 9.71924,11.457 9.48904,18.995c-0.22921,7.533 -4.22804,14.446 -10.62716,18.359l-146.78088,89.823c-8.3519,5.108 -19.03165,4.093 -26.27618,-2.499c-7.25545,-6.591 -9.35409,-17.312 -5.17863,-26.202l19.29262,-41.132l-203.30132,0c-15.00206,0 -27.20594,12.536 -27.20594,27.654l0,149.852c0,15.118 12.20387,27.19 27.20594,27.19l224.98629,0c20.06956,0 36.33974,16.396 36.33974,36.622l0,12.942c0,20.228 -16.27018,36.624 -36.33974,36.624l-224.98629,0c-62.1575,0 -112.72533,-50.732 -112.72533,-113.379l0,-149.85c-0.00198,-62.647 50.56784,-113.842 112.72533,-113.842z"/>
 </g>
</svg>